<svg contentScriptType="application/ecmascript" contentStyleType="text/css" height="283px" preserveAspectRatio="none" style="width:697px;height:283px;" version="1.1" viewBox="0 0 697 283" width="697px" xmlns="http://www.w3.org/2000/svg" xmlns:xlink="http://www.w3.org/1999/xlink" zoomAndPan="magnify"><defs><filter height="300%" id="fjqpg5ffimbyx" width="300%" x="-1" y="-1"><feGaussianBlur result="blurOut" stdDeviation="2.0"/><feColorMatrix in="blurOut" result="blurOut2" type="matrix" values="0 0 0 0 0 0 0 0 0 0 0 0 0 0 0 0 0 0 .4 0"/><feOffset dx="4.0" dy="4.0" in="blurOut2" result="blurOut3"/><feBlend in="SourceGraphic" in2="blurOut3" mode="normal"/></filter></defs><g><!--class 会社--><rect fill="#FEFECE" filter="url(#fjqpg5ffimbyx)" height="48" id="会社" style="stroke: #A80036; stroke-width: 1.5;" width="56" x="247" y="8"/><ellipse cx="262" cy="24" fill="#ADD1B2" rx="11" ry="11" style="stroke: #A80036; stroke-width: 1.0;"/><path d="M264.9731,29.6431 Q264.3921,29.9419 263.7529,30.0913 Q263.1138,30.2407 262.4082,30.2407 Q259.9014,30.2407 258.5815,28.5889 Q257.2617,26.937 257.2617,23.8159 Q257.2617,20.6865 258.5815,19.0347 Q259.9014,17.3828 262.4082,17.3828 Q263.1138,17.3828 263.7612,17.5322 Q264.4087,17.6816 264.9731,17.9805 L264.9731,20.7031 Q264.3423,20.1221 263.7488,19.8523 Q263.1553,19.5825 262.5244,19.5825 Q261.1797,19.5825 260.4949,20.6492 Q259.8101,21.7158 259.8101,23.8159 Q259.8101,25.9077 260.4949,26.9744 Q261.1797,28.041 262.5244,28.041 Q263.1553,28.041 263.7488,27.7712 Q264.3423,27.5015 264.9731,26.9204 Z "/><text fill="#000000" font-family="sans-serif" font-size="12" lengthAdjust="spacingAndGlyphs" textLength="24" x="276" y="28.5352">会社</text><line style="stroke: #A80036; stroke-width: 1.5;" x1="248" x2="302" y1="40" y2="40"/><line style="stroke: #A80036; stroke-width: 1.5;" x1="248" x2="302" y1="48" y2="48"/><!--class 持分会社--><rect fill="#FEFECE" filter="url(#fjqpg5ffimbyx)" height="48" id="持分会社" style="stroke: #A80036; stroke-width: 1.5;" width="80" x="178" y="116"/><ellipse cx="193" cy="132" fill="#ADD1B2" rx="11" ry="11" style="stroke: #A80036; stroke-width: 1.0;"/><path d="M195.9731,137.6431 Q195.3921,137.9419 194.7529,138.0913 Q194.1138,138.2407 193.4082,138.2407 Q190.9014,138.2407 189.5815,136.5889 Q188.2617,134.937 188.2617,131.8159 Q188.2617,128.6865 189.5815,127.0347 Q190.9014,125.3828 193.4082,125.3828 Q194.1138,125.3828 194.7612,125.5322 Q195.4087,125.6816 195.9731,125.9805 L195.9731,128.7031 Q195.3423,128.1221 194.7488,127.8523 Q194.1553,127.5825 193.5244,127.5825 Q192.1797,127.5825 191.4949,128.6492 Q190.8101,129.7158 190.8101,131.8159 Q190.8101,133.9077 191.4949,134.9744 Q192.1797,136.041 193.5244,136.041 Q194.1553,136.041 194.7488,135.7712 Q195.3423,135.5015 195.9731,134.9204 Z "/><text fill="#000000" font-family="sans-serif" font-size="12" lengthAdjust="spacingAndGlyphs" textLength="48" x="207" y="136.5352">持分会社</text><line style="stroke: #A80036; stroke-width: 1.5;" x1="179" x2="257" y1="148" y2="148"/><line style="stroke: #A80036; stroke-width: 1.5;" x1="179" x2="257" y1="156" y2="156"/><!--class 株式会社--><rect fill="#FEFECE" filter="url(#fjqpg5ffimbyx)" height="48" id="株式会社" style="stroke: #A80036; stroke-width: 1.5;" width="80" x="328" y="116"/><ellipse cx="343" cy="132" fill="#ADD1B2" rx="11" ry="11" style="stroke: #A80036; stroke-width: 1.0;"/><path d="M345.9731,137.6431 Q345.3921,137.9419 344.7529,138.0913 Q344.1138,138.2407 343.4082,138.2407 Q340.9014,138.2407 339.5815,136.5889 Q338.2617,134.937 338.2617,131.8159 Q338.2617,128.6865 339.5815,127.0347 Q340.9014,125.3828 343.4082,125.3828 Q344.1138,125.3828 344.7612,125.5322 Q345.4087,125.6816 345.9731,125.9805 L345.9731,128.7031 Q345.3423,128.1221 344.7488,127.8523 Q344.1553,127.5825 343.5244,127.5825 Q342.1797,127.5825 341.4949,128.6492 Q340.8101,129.7158 340.8101,131.8159 Q340.8101,133.9077 341.4949,134.9744 Q342.1797,136.041 343.5244,136.041 Q344.1553,136.041 344.7488,135.7712 Q345.3423,135.5015 345.9731,134.9204 Z "/><text fill="#000000" font-family="sans-serif" font-size="12" lengthAdjust="spacingAndGlyphs" textLength="48" x="357" y="136.5352">株式会社</text><line style="stroke: #A80036; stroke-width: 1.5;" x1="329" x2="407" y1="148" y2="148"/><line style="stroke: #A80036; stroke-width: 1.5;" x1="329" x2="407" y1="156" y2="156"/><!--class 合名会社--><rect fill="#FEFECE" filter="url(#fjqpg5ffimbyx)" height="48" id="合名会社" style="stroke: #A80036; stroke-width: 1.5;" width="80" x="6" y="224"/><ellipse cx="21" cy="240" fill="#ADD1B2" rx="11" ry="11" style="stroke: #A80036; stroke-width: 1.0;"/><path d="M23.9731,245.6431 Q23.3921,245.9419 22.7529,246.0913 Q22.1138,246.2407 21.4082,246.2407 Q18.9014,246.2407 17.5815,244.5889 Q16.2617,242.937 16.2617,239.8159 Q16.2617,236.6865 17.5815,235.0347 Q18.9014,233.3828 21.4082,233.3828 Q22.1138,233.3828 22.7612,233.5322 Q23.4087,233.6816 23.9731,233.9805 L23.9731,236.7031 Q23.3423,236.1221 22.7488,235.8523 Q22.1553,235.5825 21.5244,235.5825 Q20.1797,235.5825 19.4949,236.6492 Q18.8101,237.7158 18.8101,239.8159 Q18.8101,241.9077 19.4949,242.9744 Q20.1797,244.041 21.5244,244.041 Q22.1553,244.041 22.7488,243.7712 Q23.3423,243.5015 23.9731,242.9204 Z "/><text fill="#000000" font-family="sans-serif" font-size="12" lengthAdjust="spacingAndGlyphs" textLength="48" x="35" y="244.5352">合名会社</text><line style="stroke: #A80036; stroke-width: 1.5;" x1="7" x2="85" y1="256" y2="256"/><line style="stroke: #A80036; stroke-width: 1.5;" x1="7" x2="85" y1="264" y2="264"/><!--class 合資会社--><rect fill="#FEFECE" filter="url(#fjqpg5ffimbyx)" height="48" id="合資会社" style="stroke: #A80036; stroke-width: 1.5;" width="80" x="121" y="224"/><ellipse cx="136" cy="240" fill="#ADD1B2" rx="11" ry="11" style="stroke: #A80036; stroke-width: 1.0;"/><path d="M138.9731,245.6431 Q138.3921,245.9419 137.7529,246.0913 Q137.1138,246.2407 136.4082,246.2407 Q133.9014,246.2407 132.5815,244.5889 Q131.2617,242.937 131.2617,239.8159 Q131.2617,236.6865 132.5815,235.0347 Q133.9014,233.3828 136.4082,233.3828 Q137.1138,233.3828 137.7612,233.5322 Q138.4087,233.6816 138.9731,233.9805 L138.9731,236.7031 Q138.3423,236.1221 137.7488,235.8523 Q137.1553,235.5825 136.5244,235.5825 Q135.1797,235.5825 134.4949,236.6492 Q133.8101,237.7158 133.8101,239.8159 Q133.8101,241.9077 134.4949,242.9744 Q135.1797,244.041 136.5244,244.041 Q137.1553,244.041 137.7488,243.7712 Q138.3423,243.5015 138.9731,242.9204 Z "/><text fill="#000000" font-family="sans-serif" font-size="12" lengthAdjust="spacingAndGlyphs" textLength="48" x="150" y="244.5352">合資会社</text><line style="stroke: #A80036; stroke-width: 1.5;" x1="122" x2="200" y1="256" y2="256"/><line style="stroke: #A80036; stroke-width: 1.5;" x1="122" x2="200" y1="264" y2="264"/><!--class 合同会社--><rect fill="#FEFECE" filter="url(#fjqpg5ffimbyx)" height="48" id="合同会社" style="stroke: #A80036; stroke-width: 1.5;" width="80" x="236" y="224"/><ellipse cx="251" cy="240" fill="#ADD1B2" rx="11" ry="11" style="stroke: #A80036; stroke-width: 1.0;"/><path d="M253.9731,245.6431 Q253.3921,245.9419 252.7529,246.0913 Q252.1138,246.2407 251.4082,246.2407 Q248.9014,246.2407 247.5815,244.5889 Q246.2617,242.937 246.2617,239.8159 Q246.2617,236.6865 247.5815,235.0347 Q248.9014,233.3828 251.4082,233.3828 Q252.1138,233.3828 252.7612,233.5322 Q253.4087,233.6816 253.9731,233.9805 L253.9731,236.7031 Q253.3423,236.1221 252.7488,235.8523 Q252.1553,235.5825 251.5244,235.5825 Q250.1797,235.5825 249.4949,236.6492 Q248.8101,237.7158 248.8101,239.8159 Q248.8101,241.9077 249.4949,242.9744 Q250.1797,244.041 251.5244,244.041 Q252.1553,244.041 252.7488,243.7712 Q253.3423,243.5015 253.9731,242.9204 Z "/><text fill="#000000" font-family="sans-serif" font-size="12" lengthAdjust="spacingAndGlyphs" textLength="48" x="265" y="244.5352">合同会社</text><line style="stroke: #A80036; stroke-width: 1.5;" x1="237" x2="315" y1="256" y2="256"/><line style="stroke: #A80036; stroke-width: 1.5;" x1="237" x2="315" y1="264" y2="264"/><!--class 特例有限会社--><rect fill="#FEFECE" filter="url(#fjqpg5ffimbyx)" height="48" id="特例有限会社" style="stroke: #A80036; stroke-width: 1.5;" width="104" x="351" y="224"/><ellipse cx="366" cy="240" fill="#ADD1B2" rx="11" ry="11" style="stroke: #A80036; stroke-width: 1.0;"/><path d="M368.9731,245.6431 Q368.3921,245.9419 367.7529,246.0913 Q367.1138,246.2407 366.4082,246.2407 Q363.9014,246.2407 362.5815,244.5889 Q361.2617,242.937 361.2617,239.8159 Q361.2617,236.6865 362.5815,235.0347 Q363.9014,233.3828 366.4082,233.3828 Q367.1138,233.3828 367.7612,233.5322 Q368.4087,233.6816 368.9731,233.9805 L368.9731,236.7031 Q368.3423,236.1221 367.7488,235.8523 Q367.1553,235.5825 366.5244,235.5825 Q365.1797,235.5825 364.4949,236.6492 Q363.8101,237.7158 363.8101,239.8159 Q363.8101,241.9077 364.4949,242.9744 Q365.1797,244.041 366.5244,244.041 Q367.1553,244.041 367.7488,243.7712 Q368.3423,243.5015 368.9731,242.9204 Z "/><text fill="#000000" font-family="sans-serif" font-size="12" lengthAdjust="spacingAndGlyphs" textLength="72" x="380" y="244.5352">特例有限会社</text><line style="stroke: #A80036; stroke-width: 1.5;" x1="352" x2="454" y1="256" y2="256"/><line style="stroke: #A80036; stroke-width: 1.5;" x1="352" x2="454" y1="264" y2="264"/><!--class 社員--><rect fill="#FEFECE" filter="url(#fjqpg5ffimbyx)" height="48" id="社員" style="stroke: #A80036; stroke-width: 1.5;" width="56" x="536" y="8"/><ellipse cx="551" cy="24" fill="#ADD1B2" rx="11" ry="11" style="stroke: #A80036; stroke-width: 1.0;"/><path d="M553.9731,29.6431 Q553.3921,29.9419 552.7529,30.0913 Q552.1138,30.2407 551.4082,30.2407 Q548.9014,30.2407 547.5815,28.5889 Q546.2617,26.937 546.2617,23.8159 Q546.2617,20.6865 547.5815,19.0347 Q548.9014,17.3828 551.4082,17.3828 Q552.1138,17.3828 552.7612,17.5322 Q553.4087,17.6816 553.9731,17.9805 L553.9731,20.7031 Q553.3423,20.1221 552.7488,19.8523 Q552.1553,19.5825 551.5244,19.5825 Q550.1797,19.5825 549.4949,20.6492 Q548.8101,21.7158 548.8101,23.8159 Q548.8101,25.9077 549.4949,26.9744 Q550.1797,28.041 551.5244,28.041 Q552.1553,28.041 552.7488,27.7712 Q553.3423,27.5015 553.9731,26.9204 Z "/><text fill="#000000" font-family="sans-serif" font-size="12" lengthAdjust="spacingAndGlyphs" textLength="24" x="565" y="28.5352">社員</text><line style="stroke: #A80036; stroke-width: 1.5;" x1="537" x2="591" y1="40" y2="40"/><line style="stroke: #A80036; stroke-width: 1.5;" x1="537" x2="591" y1="48" y2="48"/><!--class 無限責任社員--><rect fill="#FEFECE" filter="url(#fjqpg5ffimbyx)" height="48" id="無限責任社員" style="stroke: #A80036; stroke-width: 1.5;" width="104" x="443" y="116"/><ellipse cx="458" cy="132" fill="#ADD1B2" rx="11" ry="11" style="stroke: #A80036; stroke-width: 1.0;"/><path d="M460.9731,137.6431 Q460.3921,137.9419 459.7529,138.0913 Q459.1138,138.2407 458.4082,138.2407 Q455.9014,138.2407 454.5815,136.5889 Q453.2617,134.937 453.2617,131.8159 Q453.2617,128.6865 454.5815,127.0347 Q455.9014,125.3828 458.4082,125.3828 Q459.1138,125.3828 459.7612,125.5322 Q460.4087,125.6816 460.9731,125.9805 L460.9731,128.7031 Q460.3423,128.1221 459.7488,127.8523 Q459.1553,127.5825 458.5244,127.5825 Q457.1797,127.5825 456.4949,128.6492 Q455.8101,129.7158 455.8101,131.8159 Q455.8101,133.9077 456.4949,134.9744 Q457.1797,136.041 458.5244,136.041 Q459.1553,136.041 459.7488,135.7712 Q460.3423,135.5015 460.9731,134.9204 Z "/><text fill="#000000" font-family="sans-serif" font-size="12" lengthAdjust="spacingAndGlyphs" textLength="72" x="472" y="136.5352">無限責任社員</text><line style="stroke: #A80036; stroke-width: 1.5;" x1="444" x2="546" y1="148" y2="148"/><line style="stroke: #A80036; stroke-width: 1.5;" x1="444" x2="546" y1="156" y2="156"/><!--class 有限責任社員--><rect fill="#FEFECE" filter="url(#fjqpg5ffimbyx)" height="48" id="有限責任社員" style="stroke: #A80036; stroke-width: 1.5;" width="104" x="582" y="116"/><ellipse cx="597" cy="132" fill="#ADD1B2" rx="11" ry="11" style="stroke: #A80036; stroke-width: 1.0;"/><path d="M599.9731,137.6431 Q599.3921,137.9419 598.7529,138.0913 Q598.1138,138.2407 597.4082,138.2407 Q594.9014,138.2407 593.5815,136.5889 Q592.2617,134.937 592.2617,131.8159 Q592.2617,128.6865 593.5815,127.0347 Q594.9014,125.3828 597.4082,125.3828 Q598.1138,125.3828 598.7612,125.5322 Q599.4087,125.6816 599.9731,125.9805 L599.9731,128.7031 Q599.3423,128.1221 598.7488,127.8523 Q598.1553,127.5825 597.5244,127.5825 Q596.1797,127.5825 595.4949,128.6492 Q594.8101,129.7158 594.8101,131.8159 Q594.8101,133.9077 595.4949,134.9744 Q596.1797,136.041 597.5244,136.041 Q598.1553,136.041 598.7488,135.7712 Q599.3423,135.5015 599.9731,134.9204 Z "/><text fill="#000000" font-family="sans-serif" font-size="12" lengthAdjust="spacingAndGlyphs" textLength="72" x="611" y="136.5352">有限責任社員</text><line style="stroke: #A80036; stroke-width: 1.5;" x1="583" x2="685" y1="148" y2="148"/><line style="stroke: #A80036; stroke-width: 1.5;" x1="583" x2="685" y1="156" y2="156"/><!--link 会社 to 持分会社--><path d="M252.6408,74.3649 C245.2108,88.4428 237.1962,103.6283 230.7492,115.8436 " fill="none" id="会社-持分会社" style="stroke: #A80036; stroke-width: 1.0;"/><polygon fill="none" points="246.6822,70.6577,262.2081,56.2373,259.0636,77.1923,246.6822,70.6577" style="stroke: #A80036; stroke-width: 1.0;"/><!--link 会社 to 株式会社--><path d="M309.0157,71.5021 C321.8084,86.3582 335.9627,102.7954 347.1986,115.8436 " fill="none" id="会社-株式会社" style="stroke: #A80036; stroke-width: 1.0;"/><polygon fill="none" points="303.6171,75.9604,295.871,56.2373,314.2259,66.825,303.6171,75.9604" style="stroke: #A80036; stroke-width: 1.0;"/><!--link 持分会社 to 合名会社--><path d="M162.1774,175.0514 C136.7759,191.0012 107.3519,209.4767 84.4713,223.8436 " fill="none" id="持分会社-合名会社" style="stroke: #A80036; stroke-width: 1.0;"/><polygon fill="none" points="158.7396,168.9445,179.3998,164.2373,166.1844,180.801,158.7396,168.9445" style="stroke: #A80036; stroke-width: 1.0;"/><!--link 持分会社 to 合資会社--><path d="M195.6408,182.3649 C188.2108,196.4428 180.1962,211.6283 173.7492,223.8436 " fill="none" id="持分会社-合資会社" style="stroke: #A80036; stroke-width: 1.0;"/><polygon fill="none" points="189.6822,178.6577,205.2081,164.2373,202.0636,185.1923,189.6822,178.6577" style="stroke: #A80036; stroke-width: 1.0;"/><!--link 持分会社 to 合同会社--><path d="M240.494,181.8854 C248.1263,196.0972 256.3925,211.4895 263.0271,223.8436 " fill="none" id="持分会社-合同会社" style="stroke: #A80036; stroke-width: 1.0;"/><polygon fill="none" points="234.312,185.1691,231.0163,164.2373,246.6459,178.5453,234.312,185.1691" style="stroke: #A80036; stroke-width: 1.0;"/><!--link 株式会社 to 特例有限会社--><path d="M382.041,183.3264 C386.5148,197.1315 391.3028,211.9059 395.1715,223.8436 " fill="none" id="株式会社-特例有限会社" style="stroke: #A80036; stroke-width: 1.0;"/><polygon fill="none" points="375.3615,185.4212,375.8547,164.2373,388.6796,181.1051,375.3615,185.4212" style="stroke: #A80036; stroke-width: 1.0;"/><!--link 社員 to 無限責任社員--><path d="M537.5457,73.4068 C528.3813,87.751 518.4149,103.3507 510.4333,115.8436 " fill="none" id="社員-無限責任社員" style="stroke: #A80036; stroke-width: 1.0;"/><polygon fill="none" points="531.8483,69.3225,548.5151,56.2373,543.6461,76.86,531.8483,69.3225" style="stroke: #A80036; stroke-width: 1.0;"/><!--link 社員 to 有限責任社員--><path d="M590.8377,73.4068 C600.1349,87.751 610.2458,103.3507 618.3431,115.8436 " fill="none" id="社員-有限責任社員" style="stroke: #A80036; stroke-width: 1.0;"/><polygon fill="none" points="584.7132,76.8277,579.7094,56.2373,596.4614,69.2131,584.7132,76.8277" style="stroke: #A80036; stroke-width: 1.0;"/><!--
@startuml
class 会社
会社 <|- - 持分会社
会社 <|- - 株式会社
持分会社 <|- - 合名会社
持分会社 <|- - 合資会社
持分会社 <|- - 合同会社
株式会社 <|- - 特例有限会社

class 社員
社員 <|- - 無限責任社員
社員 <|- - 有限責任社員
@enduml

PlantUML version 1.2018.10(Sun Aug 26 02:02:59 JST 2018)
(GPL source distribution)
Java Runtime: OpenJDK Runtime Environment
JVM: OpenJDK 64-Bit Server VM
Java Version: 1.8.0_181-b02
Operating System: Mac OS X
OS Version: 10.13.6
Default Encoding: UTF-8
Language: ja
Country: JP
--></g></svg>